<?xml version="1.0" encoding="iso-8859-1"?>
<!-- Uploaded to: SVG Repo, www.svgrepo.com, Generator: SVG Repo Mixer Tools -->
<svg fill="#000000" height="800px" width="800px" version="1.1" id="Layer_1" xmlns="http://www.w3.org/2000/svg" xmlns:xlink="http://www.w3.org/1999/xlink" 
	 viewBox="0 0 464 464" xml:space="preserve">
<g>
	<g>
		<path d="M278,380c-6.628,0-12,5.372-12,12s5.372,12,12,12c9.924,0,18,8.076,18,18s-8.076,18-18,18h-92c-9.924,0-18-8.076-18-18
			s8.076-18,18-18c6.628,0,12-5.372,12-12s-5.372-12-12-12c-23.16,0-42,18.84-42,42c0,23.16,18.84,42,42,42h92
			c23.16,0,42-18.84,42-42C320,398.84,301.16,380,278,380z"/>
	</g>
</g>
<g>
	<g>
		<path d="M404,0H60C31.328,0,8,23.328,8,52v248c0,6.628,5.372,12,12,12s12-5.372,12-12V52c0-15.436,12.564-28,28-28h344
			c15.436,0,28,12.564,28,28v248c0,6.628,5.372,12,12,12s12-5.372,12-12V52C456,23.328,432.672,0,404,0z"/>
	</g>
</g>
<g>
	<g>
		<path d="M275.872,414.22l-12-80c-0.884-5.876-5.928-10.22-11.868-10.22h-40c-5.944,0-10.984,4.344-11.868,10.22l-12,80
			c-0.52,3.456,0.496,6.964,2.772,9.612c2.28,2.644,5.6,4.168,9.092,4.168h64c3.492,0,6.812-1.524,9.1-4.168
			C275.376,421.184,276.392,417.676,275.872,414.22z M213.932,404l8.4-56h19.328l8.404,56H213.932z"/>
	</g>
</g>
<g>
	<g>
		<path d="M400,40H64.008c-26.468,0-48,21.532-48,48v208c0,26.468,21.532,48,48,48H400c26.468,0,48-21.532,48-48V88
			C448,61.532,426.468,40,400,40z M432,296c0,17.644-14.356,32-32,32H64.008C46.364,328,32,313.644,32,296V88
			c0-17.644,14.364-32,32.008-32H400c17.644,0,32,14.356,32,32V296z"/>
	</g>
</g>
<g>
	<g>
		<circle cx="230" cy="302" r="10"/>
	</g>
</g>
<g>
	<g>
		<path d="M400,80H64c-4.416,0-8,3.584-8,8v184c0,4.416,3.584,8,8,8h336c4.416,0,8-3.58,8-8V88C408,83.584,404.416,80,400,80z
			 M392,264H72V96h320V264z"/>
	</g>
</g>
<g>
	<g>
		<path d="M444,39.836c-6.628,0-12,5.372-12,12V296c0,15.436-12.564,28-28,28H60c-15.436,0-28-12.564-28-28V52.336
			c0-6.628-5.372-12-12-12s-12,5.372-12,12V296c0,28.672,23.328,52,52,52h344c28.672,0,52-23.328,52-52V51.836
			C456,45.208,450.628,39.836,444,39.836z"/>
	</g>
</g>
<g>
	<g>
		<path d="M300,160H164c-4.416,0-8,3.58-8,8c0,4.416,3.584,8,8,8h136c4.416,0,8-3.58,8-8S304.416,160,300,160z"/>
	</g>
</g>
<g>
	<g>
		<path d="M292,160c-4.416,0-8,3.58-8,8v48c0,6.616-5.384,12-12,12h-80c-6.616,0-12-5.384-12-12v-48c0-4.42-3.584-8-8-8s-8,3.58-8,8
			v48c0,15.436,12.564,28,28,28h80c15.436,0,28-12.56,28-28v-48C300,163.58,296.416,160,292,160z"/>
	</g>
</g>
<g>
	<g>
		<path d="M204,184c-4.416,0-8,3.58-8,8v20c0,4.416,3.584,8,8,8s8-3.58,8-8v-20C212,187.58,208.416,184,204,184z"/>
	</g>
</g>
<g>
	<g>
		<path d="M232,184c-4.416,0-8,3.58-8,8v20c0,4.416,3.584,8,8,8s8-3.58,8-8v-20C240,187.58,236.416,184,232,184z"/>
	</g>
</g>
<g>
	<g>
		<path d="M260,184c-4.416,0-8,3.58-8,8v20c0,4.416,3.584,8,8,8c4.416,0,8-3.58,8-8v-20C268,187.58,264.416,184,260,184z"/>
	</g>
</g>
<g>
	<g>
		<path d="M223.656,124.344c-3.124-3.124-8.188-3.124-11.312,0l-38,38c-3.124,3.124-3.124,8.188,0,11.312
			C175.908,175.22,177.952,176,180,176c2.048,0,4.092-0.78,5.656-2.344l38-38C226.78,132.532,226.78,127.468,223.656,124.344z"/>
	</g>
</g>
<g>
	<g>
		<path d="M295.656,162.344l-38-38c-3.124-3.124-8.188-3.124-11.312,0c-3.124,3.124-3.124,8.188,0,11.312l38,38
			C285.908,175.22,287.952,176,290,176c2.048,0,4.092-0.78,5.656-2.344C298.78,170.532,298.78,165.468,295.656,162.344z"/>
	</g>
</g>
</svg>